<!-- icon666.com - MILLIONS vector ICONS FREE --><svg fill="#126eff" xmlns="http://www.w3.org/2000/svg" xmlns:xlink="http://www.w3.org/1999/xlink" version="1.1" id="Capa_1" x="0px" y="0px" viewBox="0 0 512 512" style="enable-background:new white;" xml:space="preserve"><g><path d="M271,407.714h170.668c8.284,0,15-6.716,15-15v-23.561c0-8.284-6.716-15-15-15H271V407.714z"></path><rect x="168.166" y="437.714" width="175.055" height="54.198"></rect><path d="M55.332,369.154v23.561c0,8.284,6.716,15,15,15H241v-53.561H70.332C62.048,354.154,55.332,360.869,55.332,369.154z"></path><path d="M0,476.912c0,8.284,6.716,15,15,15h123.166v-53.636v-0.562H15c-8.284,0-15,6.716-15,15V476.912z"></path><path d="M373.221,438.276v53.636H497c8.284,0,15-6.716,15-15v-24.198c0-8.284-6.716-15-15-15H373.221V438.276z"></path><path d="M456.669,225.593v-23.561c0-8.284-6.716-15-15-15H271v53.561h170.668C449.953,240.593,456.669,233.878,456.669,225.593z"></path><path d="M241,187.033H70.332c-8.284,0-15,6.716-15,15v23.561c0,8.284,6.716,15,15,15H241V187.033z"></path><rect x="168.166" y="270.593" width="175.055" height="53.56"></rect><path d="M138.166,271v-0.407H15c-8.284,0-15,6.716-15,15v23.56c0,8.284,6.716,15,15,15h123.165V271z"></path><path d="M373.221,271v53.153H497c8.284,0,15-6.716,15-15v-23.56c0-8.284-6.716-15-15-15h-123.78V271z"></path><path d="M456.669,58.472V35.089c0-8.284-6.716-15-15-15H271v53.384h170.668C449.953,73.472,456.669,66.756,456.669,58.472z"></path><path d="M241,73.472V20.089H70.332c-8.284,0-15,6.716-15,15v23.384c0,8.284,6.716,15,15,15H241z"></path><rect x="168.166" y="103.472" width="175.055" height="53.561"></rect><path d="M138.166,157.032v-53.56H15c-8.284,0-15,6.716-15,15v23.561c0,8.284,6.716,15,15,15L138.166,157.032L138.166,157.032z"></path><path d="M497,103.472h-123.78v53.56v0H497c8.284,0,15-6.716,15-15v-23.561C512,110.188,505.285,103.472,497,103.472z"></path></g></svg>