<?xml version="1.0" encoding="UTF-8"?> <svg xmlns="http://www.w3.org/2000/svg" id="Layer_1" data-name="Layer 1" viewBox="0 0 64 64"><path d="M59.33,28,57.2,26.4A7,7,0,0,0,53,25H51V22a3,3,0,0,0-3-3H45V6a5,5,0,0,0-5-5H6A5,5,0,0,0,1,6V58a5,5,0,0,0,5,5H40a5,5,0,0,0,5-5V47h7a7,7,0,0,0,4.2-1.4L58.33,44H63V28ZM39,19H16a3,3,0,0,0-3,3V42a3,3,0,0,0,3,3H37.18A3,3,0,0,0,39,46.82V49H7V15H39ZM15,25H49v2H15ZM37.18,43H16a1,1,0,0,1-1-1V29H49V41H40A3,3,0,0,0,37.18,43ZM49,22v1H15V22a1,1,0,0,1,1-1H48A1,1,0,0,1,49,22ZM6,3H40a3,3,0,0,1,3,3V9H3V6A3,3,0,0,1,6,3ZM40,61H6a3,3,0,0,1-3-3V55H43v3A3,3,0,0,1,40,61Zm3-8H3V11H43v8H41V13H5V51H41V47h2ZM61,42H57.67L55,44a5.05,5.05,0,0,1-3,1H40a1,1,0,0,1,0-2h9.33a3,3,0,0,0,1.8-.6l3.47-2.6-1.2-1.6L51,40V27h2a5.05,5.05,0,0,1,3,1l2.67,2H61Z"></path><path d="M25,34a4,4,0,0,0-2,.55,4,4,0,1,0,0,6.9A4,4,0,1,0,25,34Zm-6,4a2,2,0,0,1,2-2,1.75,1.75,0,0,1,.51.08,3.87,3.87,0,0,0,0,3.84A1.75,1.75,0,0,1,21,40,2,2,0,0,1,19,38Zm6,2a2,2,0,1,1,2-2A2,2,0,0,1,25,40Z"></path><rect x="45" y="37" width="2" height="2"></rect><rect x="41" y="37" width="2" height="2"></rect><rect x="37" y="37" width="2" height="2"></rect><rect x="35" y="33" width="12" height="2"></rect><path d="M54,13h7V7H54V3.92L46.4,10,54,16.08Zm-2-1.08L49.6,10,52,8.08V9h7v2H52Z"></path><path d="M54,51H47v6h7v3.08L61.6,54,54,47.92Zm2,1.08L58.4,54,56,55.92V55H49V53h7Z"></path><rect x="9" y="45" width="2" height="2"></rect><rect x="9" y="41" width="2" height="2"></rect><rect x="9" y="37" width="2" height="2"></rect><rect x="18" y="5" width="6" height="2"></rect><rect x="26" y="5" width="2" height="2"></rect><rect x="19" y="57" width="8" height="2"></rect></svg> 